<svg xmlns="http://www.w3.org/2000/svg" viewBox="0 0 120 120" role="img" aria-labelledby="title desc">
  <title id="title">KIWI HUMBLE loader separated parts</title>
  <desc id="desc">Separated vector parts for badge, sparks, mascot body, eyes, and label plate.</desc>
  <defs>
    <style>
      .navy{fill:#182d5b}.ink{fill:#162e5c}.white{fill:#fff}.yellow{fill:#f0a624}.gold{fill:#f0a625}.orange{fill:#d86b1b}.brown{fill:#572a14}.green{fill:#459e3a}
    </style>
  </defs>
  <g id="badge">
    <rect class="navy" x="9" y="7" width="102" height="106" rx="38"/>
  </g>
  <g id="top-lettering" class="white">
    <path d="M45.2 25.8c-1.5.1-2.8-1-3-2.5-.8-6.8-1.2-13-1.2-13.3-.1-1.5 1-2.8 2.6-2.9 1.5-.1 2.8 1 2.9 2.6 0 .1.5 6.4 1.2 12.9.2 1.5-.9 2.9-2.5 3.1z"/>
    <path d="M77.1 30.2c-.5 0-.9-.1-1.3-.4-1.3-.7-1.8-2.4-1.1-3.7 3.1-5.6 6.2-12.4 6.2-12.4.6-1.4 2.3-2 3.7-1.3s2 2.3 1.3 3.7c-.1.3-3.2 7.1-6.4 12.9-.5.8-1.4 1.2-2.4 1.2z"/>
    <path d="M34.8 25c-5.9-1.9-8.7-8.9-8.8-13 0-1.5 1.2-2.8 2.7-2.8s2.8 1.2 2.8 2.7c0 .5.3 3.1 1.8 5.2.3-.8.8-1.7 1.4-2.7.8-1.3 2.5-1.7 3.8-.9 1.3.8 1.7 2.5.9 3.8-.8 1.3-1.3 2.2-1.8 3.5.7.1 1.5.2 2.5.2 1.5.1 2.7 1.3 2.7 2.9-.1 1.5-1.4 2.7-2.9 2.7-1.9-.1-3.5-.4-5.1-.9z"/>
    <path d="M66.6 26.2c-1.1.1-2.1-.5-2.6-1.4-.5-1-1.1-2.2-1.8-3.4-1.9 2.4-3.9 3.9-5.9 4.1-1.2.2-2.4-.2-3.3-1.1-3.5-3.4-2.6-12.5-2.3-15.4.2-1.5 1.6-2.6 3.1-2.4s2.6 1.6 2.4 3.1c-.3 2.9-.3 5.4-.1 7.1.8-1.2 1.7-3 2.5-4.6.5-.9 1.4-1.5 2.4-1.5 1 0 1.9.5 2.4 1.3.3.5 1.2 2.5 2 4.4.6-1.8 1.1-3.7 1.2-5.6.1-1.5 1.4-2.7 2.9-2.6 1.5.1 2.7 1.4 2.6 2.9-.3 5.7-3.2 12.5-4 13.7-.4.8-.8 1.2-1.5 1.4z"/>
  </g>
  <g id="spark-left" class="yellow">
    <path d="M18.1 44.1c-.3 0-.6-.1-.9-.3l-5.2-3.5c-.8-.5-1-1.6-.5-2.4s1.6-1 2.4-.5l5.2 3.5c.8.5 1 1.6.5 2.4-.3.5-.9.8-1.5.8z"/>
    <path d="M18.4 52H11c-1 0-1.8-.8-1.8-1.8s.8-1.8 1.8-1.8h7.4c1 0 1.8.8 1.8 1.8s-.8 1.8-1.8 1.8z"/>
    <path d="M13.2 62.6c-.6 0-1.1-.3-1.5-.8-.5-.8-.3-1.9.5-2.4l5.5-3.5c.8-.5 1.9-.3 2.4.5s.3 1.9-.5 2.4l-5.5 3.5c-.3.2-.6.3-.9.3z"/>
  </g>
  <g id="spark-right" class="yellow">
    <path d="M101.9 44.1c.3 0 .6-.1.9-.3l5.2-3.5c.8-.5 1-1.6.5-2.4s-1.6-1-2.4-.5l-5.2 3.5c-.8.5-1 1.6-.5 2.4.3.5.9.8 1.5.8z"/>
    <path d="M101.6 52h7.4c1 0 1.8-.8 1.8-1.8s-.8-1.8-1.8-1.8h-7.4c-1 0-1.8.8-1.8 1.8s.8 1.8 1.8 1.8z"/>
    <path d="M106.8 62.6c.6 0 1.1-.3 1.5-.8.5-.8.3-1.9-.5-2.4l-5.5-3.5c-.8-.5-1.9-.3-2.4.5s-.3 1.9.5 2.4l5.5 3.5c.3.2.6.3.9.3z"/>
  </g>
  <g id="mascot-body">
    <path class="gold" d="M89.6 72.7c-.2 4.8-7.3 16.8-30.3 16.3-20.7-.5-28.6-9.5-29.2-14.4-1.6-12.1 11.9-11.9 29.2-11.9 17.4 0 30.8.9 30.3 10z"/>
    <ellipse class="brown" cx="60" cy="68.6" rx="31.3" ry="9.7"/>
    <ellipse class="orange" cx="60" cy="63.5" rx="31.1" ry="6.7"/>
    <path class="green" d="M31.8 55.3s-5.3 1.3-5.2 4.4c.1 3.1 3.4 2.4 7.3 2.2 0 0 .8-.3 2.2 2.3 1.3 2.5 5.9 1.1 5.9 1.1s3.3-2.4 6.3-.6 2.8 2.6 5.4 2.5 3.6-3.1 7.4-2.4c0 0 2.2.9 3.4 1.7 2.2 1.5 3.5.9 4.7.7 1.2-.2 3.3-2.7 6.6-2.5 3.4.2 3.5.9 4.4 1.2 3.5 1 4.4-.4 5.2-2.8.8-2.4 3-1.3 4-1.1 1.9.4 7.4.4 7.1-3.3 0 0-.7-3.5-5.8-4.1-5.1-.7-58.9.7-58.9.7z"/>
    <path class="gold" d="M88.8 50.9c1.5 7.5-16.7 9.2-32.4 9.2s-32.5-1.6-32.4-9.3c.1-10.3 16.6-19.5 32.3-19.5s30.3 8.7 32.5 19.6z"/>
  </g>
  <g id="eyes">
    <ellipse class="white" cx="51.1" cy="48" rx="5.1" ry="6.9"/>
    <ellipse class="white" cx="61.2" cy="48" rx="5.1" ry="6.9"/>
    <path class="ink" d="M52.3 44.7c-1.4 0-2.5 1.1-3 2.7l1.8 2.1-1.9 1.2c.5 1.6 1.7 2.8 3.1 2.8 1.8 0 3.3-2 3.3-4.4s-1.5-4.4-3.3-4.4z"/>
    <path class="ink" d="M62.4 45.2c-1.4 0-2.5 1.1-3 2.7l1.8 2.1-1.9 1.2c.5 1.6 1.7 2.8 3.1 2.8 1.8 0 3.3-2 3.3-4.4s-1.5-4.4-3.3-4.4z"/>
  </g>
  <g id="year-plate">
    <rect class="brown" x="42.2" y="70.8" width="35.6" height="15.4" rx="7.7"/>
    <text x="60" y="81.8" text-anchor="middle" font-family="Arial Black, Arial, sans-serif" font-size="10" font-weight="900" fill="#fff">2027</text>
  </g>
</svg>
