<?xml version="1.0" encoding="UTF-8"?>
<svg id="_圖層_2" data-name="圖層 2" xmlns="http://www.w3.org/2000/svg" viewBox="0 0 56.69 44.54">
  <defs>
    <style>
      .cls-1 {
        fill: #162e5c;
      }

      .cls-2 {
        fill: #572a14;
      }

      .cls-3 {
        fill: #fff;
      }

      .cls-4 {
        fill: #459e3a;
      }

      .cls-5 {
        fill: #f0a624;
      }

      .cls-6 {
        fill: #d86b1b;
      }

      .cls-7 {
        fill: #f0a625;
      }

      .cls-8 {
        fill: #182d5b;
      }
    </style>
  </defs>
  <g id="_圖層_1-2" data-name="圖層 1">
    <g>
      <path class="cls-5" d="M54.27,34.6c-.18,3.03-5.57,10.44-27.18,9.92-15.85-.39-23.59-5.69-24.12-8.68-1.54-8.71,11.04-8.27,24.02-8.27s27.67.7,27.28,7.04Z"/>
      <path class="cls-2" d="M54.36,30.86c0,4.68-11.3,7.87-25.32,7.87S2.76,35.29,2.76,30.61s12.26-8.83,26.28-8.83,25.32,4.39,25.32,9.08Z"/>
      <path class="cls-6" d="M54.15,26.81c0,4.68-11.47,5.46-25.37,5.46s-25.8-1.03-25.8-5.71,12.69-5.5,26.59-5.5,24.58,1.07,24.58,5.75Z"/>
      <path class="cls-4" d="M5.08,18.05s-4.16,1.17-4.08,3.59,2.64,1.76,5.68,1.61c0,0,.64-.22,1.68,1.76s4.64.88,4.64.88c0,0,2.56-1.83,4.96-.44s2.16,2.05,4.24,1.98,2.8-2.42,5.84-1.9c0,0,1.71.7,2.64,1.32,1.75,1.17,2.72.74,3.68.59s2.56-2.13,5.2-1.98,2.68.73,3.44.95c2.71.78,3.44-.29,4.08-2.2s2.33-1.06,3.12-.88c1.5.34,5.76.29,5.52-2.56,0,0-.56-2.71-4.56-3.22s-46.05.51-46.05.51Z"/>
      <path class="cls-1" d="M32.9,28.54c-.76,0-1.68-.2-2.83-.97-.7-.47-1.96-1.02-2.35-1.18-1.26-.18-1.93.27-2.78.85-.72.49-1.54,1.05-2.72,1.09-1.68.07-2.28-.33-3.2-1.03-.38-.29-.86-.65-1.61-1.09-1.78-1.03-3.79.37-3.81.39l-.14.1-.16.05c-1.65.5-4.73.78-5.85-1.35-.43-.81-.73-1.12-.86-1.23-.43.02-.85.06-1.25.09-1.83.14-3.42.26-4.46-.59C.33,23.21.03,22.53,0,21.66c-.1-3.08,4.58-4.43,4.78-4.49l.27-.04c1.72-.04,42.18-1.02,46.21-.5,4.65.6,5.37,3.82,5.4,3.96v.1c.1,1.08-.29,1.99-1.13,2.64-1.56,1.21-4.27,1.19-5.61.89-.13-.03-.29-.08-.46-.13-.35-.1-.89-.26-1.12-.15-.13.06-.25.26-.35.54-.35,1.06-.83,2.23-1.99,2.79-.87.42-1.93.42-3.34.01-.35-.1-.59-.25-.79-.36-.37-.21-.78-.46-2.4-.55-1.41-.06-2.49.63-3.36,1.2-.57.37-1.06.69-1.6.77-.12.02-.23.04-.35.06-.36.07-.77.15-1.25.15ZM27.2,24.53c.31,0,.65.03,1.01.09l.23.06c.07.03,1.82.75,2.82,1.41,1.16.77,1.72.66,2.49.51.14-.03.29-.06.43-.08.12-.03.51-.28.79-.46,1.01-.66,2.54-1.64,4.64-1.53,1.98.11,2.72.46,3.36.83.15.09.23.13.32.16.84.24,1.45.28,1.81.11.37-.18.67-.67,1.01-1.7.26-.78.71-1.33,1.33-1.62.98-.46,2.03-.15,2.66.04.12.03.22.07.32.09.89.2,2.93.2,3.84-.5.21-.16.48-.44.45-1.04-.08-.29-.72-2.06-3.7-2.45-3.09-.39-31.18.16-45.74.52-.98.31-3.29,1.31-3.25,2.65.01.35.09.58.22.69.4.33,1.7.23,2.96.13.43-.03.88-.07,1.34-.09.68-.13,1.66.22,2.74,2.27.54,1.04,2.73.58,3.29.44.7-.44,3.34-1.88,5.94-.38.86.5,1.42.92,1.82,1.23.72.54.85.64,1.84.61.54-.02.96-.29,1.61-.73.8-.54,1.84-1.25,3.44-1.25Z"/>
      <path class="cls-7" d="M53.62,15.28c1.19,5.89-13.08,7.2-25.31,7.2S2.95,21.2,3,15.21C3.07,7.18,15.98,0,28.21,0s23.7,6.79,25.41,15.28Z"/>
      <ellipse class="cls-3" cx="24.14" cy="13.12" rx="4.2" ry="5.69"/>
      <ellipse class="cls-3" cx="32.44" cy="13.12" rx="4.2" ry="5.69"/>
      <path class="cls-8" d="M25.13,10.36c-1.06,0-1.97.86-2.37,2.1l1.42,1.74-1.46.94c.37,1.32,1.31,2.25,2.42,2.25,1.43,0,2.59-1.57,2.59-3.52s-1.16-3.52-2.59-3.52Z"/>
      <path class="cls-8" d="M33.39,10.76c-1.06,0-1.97.86-2.37,2.1l1.42,1.74-1.46.94c.37,1.32,1.31,2.25,2.42,2.25,1.43,0,2.59-1.57,2.59-3.52s-1.16-3.52-2.59-3.52Z"/>
      <path class="cls-3" d="M19.37,4.68c-.08.08-.18.14-.3.16l-1.31.18c-.27.04-.53-.15-.56-.43-.04-.27.15-.53.43-.56l1.31-.18c.27-.04.53.15.56.43.02.15-.03.3-.13.41Z"/>
      <path class="cls-3" d="M43.39,6.92c-.11.03-.23.02-.34-.03l-1.2-.58c-.25-.12-.35-.42-.23-.67.12-.25.42-.35.67-.23l1.2.58c.25.12.35.42.23.67-.07.14-.19.23-.33.27Z"/>
      <path class="cls-3" d="M14.19,6.58c-.04.11-.12.2-.22.26l-1.16.65c-.24.14-.55.05-.68-.19-.13-.24-.05-.54.19-.68l1.16-.65c.24-.14.55-.05.68.19.08.13.08.29.03.42Z"/>
      <path class="cls-3" d="M24.78,3.36c-.06.09-.16.17-.27.2l-1.27.37c-.27.08-.54-.08-.62-.34-.08-.27.08-.54.34-.62l1.27-.37c.27-.08.54.08.62.34.04.15.01.3-.07.42Z"/>
      <path class="cls-3" d="M29.68,2.61c.09-.06.21-.1.33-.08l1.32.13c.27.03.48.27.45.55-.03.28-.27.47-.55.45l-1.32-.13c-.27-.03-.48-.27-.45-.55.02-.15.1-.28.22-.36Z"/>
      <path class="cls-3" d="M36.48,3.51c.11,0,.23.04.32.12l1.02.85c.21.18.24.49.06.7-.18.21-.49.24-.7.06l-1.02-.85c-.21-.18-.24-.49-.06-.7.1-.12.24-.18.38-.18Z"/>
      <rect class="cls-2" x="13.41" y="29.71" width="30.3" height="12.68" rx="6.34" ry="6.34"/>
      <g>
        <path class="cls-3" d="M18.91,38.38h2.55c.25,0,.45.05.58.16s.2.25.2.42c0,.16-.05.29-.16.41s-.27.17-.48.17h-3.59c-.24,0-.43-.07-.57-.2-.14-.13-.21-.29-.21-.48,0-.12.04-.27.13-.47.09-.19.18-.35.29-.46.43-.45.82-.83,1.17-1.15.35-.32.6-.53.75-.63.27-.19.49-.38.67-.57.18-.19.31-.39.41-.59.09-.2.14-.4.14-.59,0-.21-.05-.39-.15-.56-.1-.16-.23-.29-.41-.38s-.36-.14-.56-.14c-.43,0-.76.19-1.01.56-.03.05-.09.18-.16.4s-.16.39-.26.5-.24.18-.42.18c-.16,0-.3-.05-.41-.16s-.16-.25-.16-.44c0-.22.05-.46.15-.7s.25-.47.45-.66.45-.36.76-.48c.31-.12.67-.18,1.08-.18.5,0,.92.08,1.27.23.23.1.43.25.6.43s.31.39.4.63c.1.24.14.49.14.75,0,.4-.1.77-.3,1.1-.2.33-.4.59-.61.78-.21.19-.56.48-1.05.88s-.83.71-1.01.93c-.08.09-.16.19-.24.32Z"/>
        <path class="cls-3" d="M28.09,36.02c0,.53-.03.99-.1,1.38s-.19.73-.36,1.04c-.22.38-.51.68-.86.89s-.74.31-1.17.31c-.49,0-.94-.14-1.33-.42s-.69-.67-.89-1.16c-.1-.27-.17-.57-.22-.9-.05-.33-.07-.68-.07-1.06,0-.49.03-.93.08-1.33s.13-.73.24-1.02c.19-.47.47-.83.84-1.07.37-.25.8-.37,1.31-.37.34,0,.64.05.91.16.27.11.51.27.72.48.21.21.38.47.52.78.25.54.37,1.3.37,2.28ZM26.75,35.92c0-.6-.04-1.08-.11-1.46-.07-.38-.19-.67-.36-.86-.17-.19-.4-.29-.7-.29-.43,0-.73.22-.9.65s-.25,1.1-.25,2c0,.61.04,1.11.11,1.5s.19.69.36.89c.17.2.4.3.69.3s.53-.1.7-.31.29-.51.36-.89.1-.9.1-1.52Z"/>
        <path class="cls-3" d="M30.79,38.38h2.55c.25,0,.45.05.58.16s.2.25.2.42c0,.16-.05.29-.16.41s-.27.17-.48.17h-3.59c-.24,0-.43-.07-.57-.2-.14-.13-.21-.29-.21-.48,0-.12.04-.27.13-.47.09-.19.18-.35.29-.46.43-.45.82-.83,1.17-1.15.35-.32.6-.53.75-.63.27-.19.49-.38.67-.57.18-.19.31-.39.41-.59.09-.2.14-.4.14-.59,0-.21-.05-.39-.15-.56-.1-.16-.23-.29-.41-.38s-.36-.14-.56-.14c-.43,0-.76.19-1.01.56-.03.05-.09.18-.16.4s-.16.39-.26.5-.24.18-.42.18c-.16,0-.3-.05-.41-.16s-.16-.25-.16-.44c0-.22.05-.46.15-.7s.25-.47.45-.66.45-.36.76-.48c.31-.12.67-.18,1.08-.18.5,0,.92.08,1.27.23.23.1.43.25.6.43s.31.39.4.63c.1.24.14.49.14.75,0,.4-.1.77-.3,1.1-.2.33-.4.59-.61.78-.21.19-.56.48-1.05.88s-.83.71-1.01.93c-.08.09-.16.19-.24.32Z"/>
        <path class="cls-3" d="M36.06,32.44h3.25c.31,0,.54.05.68.15s.21.26.21.48c0,.14-.08.32-.25.54s-.35.47-.56.74c-.21.27-.43.61-.65,1.01s-.43.9-.61,1.48c-.08.26-.13.47-.17.64s-.07.39-.11.66-.07.48-.1.62c-.07.33-.17.56-.29.69-.13.13-.29.19-.5.19s-.36-.07-.48-.21c-.12-.14-.18-.34-.18-.61,0-.21.04-.49.13-.85s.23-.79.43-1.29c.2-.5.45-1.01.74-1.54.3-.53.65-1.05,1.06-1.57h-2.61c-.27,0-.48-.05-.61-.15-.14-.1-.2-.25-.2-.47,0-.22.07-.37.21-.43s.34-.1.6-.1Z"/>
      </g>
    </g>
  </g>
</svg>