<?xml version="1.0" encoding="UTF-8"?>
<svg id="_喇뒨쏛_2" data-name="喇뒨쏛 2" xmlns="http://www.w3.org/2000/svg" viewBox="0 0 8.11 20.95">
  <defs>
    <style>
      .cls-1 {
        fill: #f0a624;
      }
    </style>
  </defs>
  <g id="_喇뒨쏛_1-2" data-name="喇뒨쏛 1">
    <g>
      <path class="cls-1" d="M6.76,5.5c.43,0,.86-.21,1.12-.59.42-.62.26-1.46-.36-1.88L3.42.23C2.8-.18,1.96-.03,1.54.59s-.26,1.46.36,1.88l4.1,2.79c.23.16.5.23.76.23Z"/>
      <path class="cls-1" d="M1.33,11.97h5.45c.73,0,1.33-.67,1.33-1.5s-.59-1.5-1.33-1.5H1.33c-.73,0-1.33.67-1.33,1.5s.59,1.5,1.33,1.5Z"/>
      <path class="cls-1" d="M2.44,20.95c.28,0,.57-.08.83-.25l4.17-2.76c.69-.46.88-1.39.42-2.08-.46-.69-1.39-.88-2.08-.42l-4.17,2.76c-.69.46-.88,1.39-.42,2.08.29.44.77.67,1.25.67Z"/>
    </g>
  </g>
</svg>