<?xml version="1.0" encoding="UTF-8"?>
<svg id="_喇뒨쏛_2" data-name="喇뒨쏛 2" xmlns="http://www.w3.org/2000/svg" viewBox="0 0 60.92 23.31">
  <defs>
    <style>
      .cls-1 {
        fill: #fff;
      }
    </style>
  </defs>
  <g id="_喇뒨쏛_1-2" data-name="喇뒨쏛 1">
    <g>
      <path class="cls-1" d="M22.31,18.83c-1.24,0-2.31-.92-2.48-2.18-.75-5.82-1.29-13.08-1.31-13.38-.1-1.38.93-2.58,2.31-2.68,1.39-.11,2.58.93,2.68,2.31,0,.07.55,7.42,1.29,13.11.18,1.37-.79,2.62-2.16,2.8-.11.01-.22.02-.32.02Z"/>
      <path class="cls-1" d="M52.22,23.31c-.41,0-.83-.1-1.21-.31-1.21-.67-1.64-2.19-.97-3.4,2.78-5,6.08-12.09,6.12-12.16.58-1.25,2.07-1.79,3.32-1.21,1.25.58,1.79,2.07,1.21,3.32-.14.3-3.42,7.32-6.28,12.47-.46.82-1.31,1.29-2.19,1.29Z"/>
      <path class="cls-1" d="M15.02,13.9c-1.83-.06-2.63-.19-3.44-.59-.59-.29-1.03-.79-1.24-1.41-.21-.61-.16-1.26.12-1.83l.48-.97c.73-1.47,1.06-2.14,1.72-3.14.76-1.15.45-2.7-.7-3.46-1.15-.76-2.7-.45-3.46.7-.84,1.26-1.26,2.12-2.04,3.69l-.48.96c-.28.56-.47,1.14-.6,1.73-.35-2.09-.39-3.67-.39-3.73-.02-1.38-1.15-2.48-2.54-2.46C1.08,3.41-.02,4.55,0,5.93c0,.39.21,9.62,4.75,15.07.49.59,1.21.9,1.92.9.56,0,1.13-.19,1.6-.58,1.06-.88,1.21-2.46.32-3.52-.26-.31-.49-.65-.71-.99.45.37.94.71,1.48.97,1.7.84,3.31,1.05,5.52,1.12.03,0,.05,0,.08,0,1.35,0,2.46-1.07,2.5-2.42.04-1.38-1.04-2.53-2.42-2.57Z"/>
      <path class="cls-1" d="M44.37,19.4c-.99.1-1.94-.42-2.39-1.33-.46-.94-1.3-2.43-2.15-3.89-.27-.46-.92-.49-1.23-.06-1.42,1.99-3.03,3.59-4.68,3.87-1.08.19-2.16-.14-2.95-.91-3.35-3.23-2.49-12.29-2.15-15,.19-1.52,1.79-2.53,3.32-1.9,1.01.42,1.55,1.52,1.41,2.6-.33,2.68-.37,5.49-.16,7.6.08.8,1.15,1.03,1.55.33.83-1.44,1.76-3.28,2.41-4.58.39-.78,1.16-1.29,2.04-1.32.87-.04,1.69.4,2.14,1.14.08.12.79,2.41,1.78,4.53.28.6,1.16.57,1.39-.05.71-1.86,1.32-3.99,1.44-6,.08-1.24.99-2.32,2.23-2.4,1.45-.09,2.62,1.09,2.55,2.5-.17,3.51-1.45,7.06-2.49,9.41-2.25,5.08-2.98,5.23-3.83,5.41-.08.02-.16.03-.24.04ZM34.29,13.64h0s0,0,0,0Z"/>
    </g>
  </g>
</svg>