<?xml version="1.0" encoding="UTF-8"?>
<svg id="_圖層_2" data-name="圖層 2" xmlns="http://www.w3.org/2000/svg" viewBox="0 0 86.33 29.92">
  <defs>
    <style>
      .cls-1 {
        fill: #fff;
      }
    </style>
  </defs>
  <g id="_圖層_1-2" data-name="圖層 1">
    <g>
      <path class="cls-1" d="M16.5,4.92c-.95-.57-2.17-.27-2.75.67-.01.02-.98,1.61-2.29,3.68l-3.96-2.4c1.44-2.01,2.64-3.25,2.66-3.27.77-.79.77-2.05-.02-2.83C9.35,0,8.09,0,7.31.79c-.08.08-2.01,2.05-4.03,5.16-.09.14-.17.29-.26.43-.02.03-.04.05-.06.08-.02.03-.02.05-.04.08-1.15,1.84-2.09,3.71-2.79,5.55-.39,1.03.13,2.19,1.16,2.58.23.09.47.13.71.13.81,0,1.57-.49,1.87-1.29.4-1.07.92-2.15,1.5-3.24l3.98,2.41c-.06.1-.12.19-.17.29-.6,1.06-1.17,2.07-1.95,2.94-.73.83-.65,2.09.18,2.82.38.34.85.5,1.32.5.55,0,1.1-.23,1.5-.68,1.05-1.19,1.75-2.42,2.43-3.61.31-.54.61-1.08.95-1.61,1.92-2.96,3.55-5.63,3.56-5.66.57-.94.27-2.17-.67-2.75Z"/>
      <path class="cls-1" d="M21.23,25.63c-.6,0-1.21-.09-1.82-.28-2.43-.74-3.43-2.31-3.83-3.5-1.5-4.43,2.7-10.63,3.56-11.82.64-.9,1.89-1.1,2.79-.46.9.64,1.1,1.89.46,2.79-1.64,2.29-3.66,6.35-3.02,8.21.11.33.34.7,1.2.96.63.19,1.1.14,1.59-.18,1.96-1.25,3.18-5.9,3.46-7.95.15-1.09,1.16-1.86,2.25-1.71,1.09.15,1.86,1.16,1.71,2.25-.11.83-1.24,8.19-5.26,10.77-.95.61-2,.92-3.09.92Z"/>
      <path class="cls-1" d="M45.47,29.92c-1.09,0-1.98-.87-2-1.96-.06-3.27-.38-6.65-.77-8.68-.35,1-.67,2.24-.87,3-.78,2.95-1.34,5.09-3.44,5.09s-2.6-2.27-3.19-5.69c-.09-.53-.21-1.24-.35-1.94-.49,1.89-.97,4.48-1.28,7.02-.13,1.1-1.12,1.88-2.23,1.74-1.1-.13-1.88-1.13-1.74-2.23,1.58-12.93,4.15-12.93,5.39-12.93,2.27,0,3.12,2.27,3.72,5.27.63-2,1.43-3.65,2.84-4.36.81-.4,1.72-.44,2.58-.09.94.38,3.12,1.26,3.35,13.73.02,1.1-.86,2.02-1.96,2.04-.01,0-.02,0-.04,0Z"/>
      <path class="cls-1" d="M69.07,23.71c-.41,0-.82-.06-1.22-.21-.88-.31-2.2-.79-5.22-11.77-.29-1.06.33-2.17,1.4-2.46,1.07-.29,2.17.33,2.46,1.4.93,3.38,2.24,7.37,2.99,8.91.66-.33,1.74-1.22,2.5-2.12.71-.84,1.97-.95,2.82-.24.85.71.96,1.97.25,2.81-.79.95-3.31,3.68-5.96,3.68Z"/>
      <path class="cls-1" d="M85.11,8.8c-1.02-.43-2.3-.07-2.73.94-.61,1.43-2.45,2.78-3.1,2.32-1.39-.98,1.67-3.56,2.57-4.49.77-.79.59-2.11-.26-2.82-.85-.71-2.11-.59-2.82.26,0,0-2.86,3.55-3.51,2.55-.3-1.06,1.36-2.79,2.39-3.88.76-.8,1.21-1.83.62-2.76-.59-.93-1.83-1.21-2.76-.62-.43.27-5.04,3.52-4.96,6.17.11,3.63,5.97,8.86,7.59,10.38.03.02.06.04.08.06.05.04.1.09.16.12.05.04.11.07.16.1.06.03.11.06.17.09.06.03.12.05.19.07.06.02.11.04.17.05.07.02.14.03.22.03.04,0,.08.02.12.02.08,0,.15,0,.23,0,3.8,0,6.1-4.98,6.53-5.99.43-1.02-.04-2.19-1.06-2.62Z"/>
      <path class="cls-1" d="M61.82,18.77c-.27-.23-.56-.45-.86-.64.2-.85.24-1.89-.05-3.1-.24-.98-1.46-4.1-7-3.13-3.79.66-5.75,2.31-5.5,4.63h0c.4,3.75,1.59,9.99,1.64,10.25.27,1.42,1.51,2.44,2.94,2.44.04,0,.07,0,.11,0,1.46-.05,6.43-.4,9.03-2.58,1.06-.89,1.67-2.22,1.67-3.64,0-1.59-.74-3.17-1.98-4.22ZM53.92,17.08c-.03-.59.34-1.09,1-1.13s1.31.19,1.4.99c.08.78-.68,1.34-1.33,1.43-1.02.14-1.03-.69-1.06-1.29ZM56.16,24.53c-1.16.16-1.17-.79-1.21-1.46-.04-.67.39-1.24,1.14-1.28.75-.04,1.49.21,1.58,1.12.1.89-.77,1.52-1.51,1.62Z"/>
    </g>
  </g>
</svg>